<svg id="Layer_1" enable-background="new 0 0 100 100" height="512" viewBox="0 0 100 100" width="512" xmlns="http://www.w3.org/2000/svg"><g><path d="m50 90.75c-22.47 0-40.75-18.28-40.75-40.75s18.28-40.75 40.75-40.75 40.75 18.28 40.75 40.75-18.28 40.75-40.75 40.75zm0-78.5c-20.815 0-37.75 16.935-37.75 37.75s16.935 37.75 37.75 37.75 37.75-16.935 37.75-37.75-16.935-37.75-37.75-37.75zm.001 58.933c-1.202 0-2.332-.468-3.182-1.318l-10.96-10.961c-.85-.85-1.318-1.979-1.318-3.182s.468-2.333 1.318-3.183 1.979-1.317 3.181-1.317 2.333.468 3.183 1.318l2.945 2.945v-21.837c0-2.665 2.168-4.832 4.833-4.832s4.833 2.167 4.833 4.832v22.025l2.981-2.911c.845-.826 1.961-1.28 3.143-1.28 1.223 0 2.366.481 3.221 1.356.826.846 1.28 1.962 1.28 3.144 0 1.222-.482 2.366-1.356 3.22l-10.958 10.7c-.846.826-1.962 1.281-3.144 1.281zm-10.96-16.961c-.4 0-.777.156-1.06.439s-.439.66-.439 1.061.156.777.439 1.061l10.96 10.961c.563.562 1.541.567 2.109.013l10.958-10.7c.292-.285.452-.666.452-1.073 0-.394-.152-.766-.427-1.048-.558-.571-1.547-.585-2.12-.025l-5.53 5.399c-.432.421-1.075.542-1.63.309-.556-.234-.917-.779-.917-1.382v-25.589c0-1.01-.823-1.832-1.833-1.832s-1.833.822-1.833 1.832v25.458c0 .607-.365 1.154-.926 1.386-.562.233-1.207.104-1.635-.325l-5.505-5.506c-.286-.283-.663-.439-1.063-.439z"/></g></svg>