<svg id="icons" height="512" viewBox="0 0 60 60" width="512" xmlns="http://www.w3.org/2000/svg"><path d="m49 32h-18v-4a1 1 0 0 0 -2 0v4h-18a3 3 0 0 0 -3 3v4a1 1 0 0 0 2 0v-4a1 1 0 0 1 1-1h18v5a1 1 0 0 0 2 0v-5h18a1 1 0 0 1 1 1v4a1 1 0 0 0 2 0v-4a3 3 0 0 0 -3-3z" fill="#bfdbf0"/><path d="m16 18-4.54-8.08 2.53-2.03 4.53 3.92a.771.771 0 0 0 1.27-.67l-.59-5.31 2.77-1.47 3.01 4.23a.988.988 0 0 0 1.71-.19l1.77-4.13h3.08l1.77 4.13a.988.988 0 0 0 1.71.19l3.01-4.23 2.77 1.47-.59 5.31a.771.771 0 0 0 1.27.67l4.53-3.92 2.53 2.03-4.54 8.08-1 1h-26z" fill="#fde05e"/><g fill="#3778c6"><path d="m38 55v2a2.006 2.006 0 0 1 -2 2h-12a2.006 2.006 0 0 1 -2-2v-2a8 8 0 1 1 16 0z"/><path d="m17 55v2a2.006 2.006 0 0 1 -2 2h-12a2.006 2.006 0 0 1 -2-2v-2a8 8 0 1 1 16 0z"/><path d="m59 55v2a2.006 2.006 0 0 1 -2 2h-12a2.006 2.006 0 0 1 -2-2v-2a8 8 0 1 1 16 0z"/><circle cx="30" cy="42" r="5"/><circle cx="9" cy="42" r="5"/><circle cx="51" cy="42" r="5"/></g><path d="m16 18h28v8h-28z" fill="#e3c84c"/><circle cx="12" cy="8" fill="#3778c6" r="2"/><circle cx="20" cy="4" fill="#3778c6" r="2"/><circle cx="30" cy="3" fill="#3778c6" r="2"/><circle cx="30" cy="18" fill="#3778c6" r="3"/><circle cx="48" cy="8" fill="#3778c6" r="2"/><circle cx="40" cy="4" fill="#3778c6" r="2"/><rect fill="#c7af3e" height="4" rx="2" width="32" x="14" y="25"/><path d="m27 55v4h-2v-4a1 1 0 0 1 2 0z" fill="#2d629b"/><path d="m35 55v4h-2v-4a1 1 0 0 1 2 0z" fill="#2d629b"/><path d="m6 55v4h-2v-4a1 1 0 0 1 2 0z" fill="#2d629b"/><path d="m14 55v4h-2v-4a1 1 0 0 1 2 0z" fill="#2d629b"/><path d="m48 55v4h-2v-4a1 1 0 0 1 2 0z" fill="#2d629b"/><path d="m56 55v4h-2v-4a1 1 0 0 1 2 0z" fill="#2d629b"/></svg>